<svg xmlns="http://www.w3.org/2000/svg" width="306" height="100" fill="none">
  <path fill="#0070cc" d="M57.563 85.435c.095.046.235.141.423.187.188.093.376.187.658.234.282.094.564.141.893.187a8.459 8.459 0 0 0 1.175.094 4.34 4.34 0 0 0 1.316-.234 4.589 4.589 0 0 0 1.175-.61c.376-.28.658-.607.846-.982.234-.373.328-.797.328-1.263a2.168 2.168 0 0 0-.282-1.077c-.188-.329-.423-.61-.658-.89a5.595 5.595 0 0 0-.845-.702 4.41 4.41 0 0 0-.846-.562c-.283-.187-.565-.375-.799-.514-.235-.141-.47-.329-.658-.47-.188-.186-.329-.327-.47-.561a1.546 1.546 0 0 1-.188-.702c0-.375.14-.655.423-.843.282-.187.706-.281 1.222-.281.517 0 .893.047 1.268.187.33.142.611.234.8.328l.517-1.264c-.235-.094-.565-.234-1.035-.373-.47-.141-1.033-.189-1.832-.189-.424 0-.846.094-1.269.234a3.392 3.392 0 0 0-.988.563 2.452 2.452 0 0 0-.657.889 2.814 2.814 0 0 0-.235 1.123c0 .422.094.75.235 1.077.141.327.376.609.61.89.236.234.518.468.8.702.283.187.564.374.799.561.282.188.564.375.847.515.281.188.516.328.703.515.189.188.377.375.518.562.14.188.188.422.188.703 0 .186-.047.374-.14.561-.095.187-.236.328-.377.468a1.593 1.593 0 0 1-.565.283c-.234.045-.423.092-.657.092a5.95 5.95 0 0 1-.988-.093 3.535 3.535 0 0 1-.751-.188c-.235-.046-.423-.141-.565-.187-.14-.047-.28-.142-.375-.188zm7.472-8.754h3.29v9.27h1.787v-9.317h3.29v-1.359h-8.413v1.406zm7.802 7.536c-.235.188-.329.469-.329.796 0 .28.094.562.329.75.235.187.47.327.752.327.328 0 .564-.094.8-.327.234-.188.328-.47.328-.75 0-.327-.094-.561-.329-.796-.236-.187-.47-.328-.8-.328-.281 0-.564.094-.751.328zm9.588-8.894h-1.787v9.363c0 .327-.094.655-.141 1.03-.094.374-.188.702-.329.937-.235.373-.423.655-.657.842-.189.187-.424.374-.611.561l.846.983c.235-.141.516-.328.892-.608.376-.235.706-.609 1.034-1.077.376-.514.565-1.03.659-1.545a9.545 9.545 0 0 0 .14-1.592v-8.894zm4.98.187a4.59 4.59 0 0 0-1.643 1.17c-.471.515-.847 1.079-1.082 1.78-.282.655-.376 1.404-.376 2.2 0 .842.14 1.638.376 2.294.282.701.61 1.263 1.08 1.732a5.694 5.694 0 0 0 1.646 1.123 6.27 6.27 0 0 0 2.115.375c.705 0 1.41-.141 2.067-.375.658-.28 1.175-.608 1.693-1.123.47-.469.845-1.077 1.127-1.732a6.041 6.041 0 0 0 .423-2.295 7.04 7.04 0 0 0-.376-2.246c-.235-.703-.61-1.264-1.033-1.78-.471-.467-.988-.889-1.646-1.123-.657-.28-1.363-.421-2.208-.421-.799 0-1.504.141-2.162.421zm3.526 1.264c.423.235.752.515 1.034.89.282.374.516.842.657 1.31.141.515.235 1.077.235 1.639a5.989 5.989 0 0 1-.235 1.638 3.807 3.807 0 0 1-.658 1.31c-.282.376-.657.656-1.033.89a2.794 2.794 0 0 1-1.364.329c-.517 0-.987-.094-1.409-.328a3.164 3.164 0 0 1-1.034-.89 3.824 3.824 0 0 1-.658-1.311 6.27 6.27 0 0 1-.235-1.638c0-.61.094-1.17.235-1.686a3.85 3.85 0 0 1 .658-1.31c.282-.374.658-.656 1.034-.89.423-.187.892-.327 1.41-.327.47.046.94.187 1.363.374zm5.075 8.66c.094.047.235.141.423.187.188.094.376.188.658.235.283.094.564.141.893.187a8.459 8.459 0 0 0 1.175.094 4.34 4.34 0 0 0 1.316-.234 4.589 4.589 0 0 0 1.174-.61c.377-.28.659-.607.846-.982.235-.373.33-.797.33-1.263 0-.376-.095-.75-.282-1.077-.189-.329-.424-.61-.659-.89a5.56 5.56 0 0 0-.845-.702 4.416 4.416 0 0 0-.846-.562c-.283-.187-.565-.375-.799-.514-.235-.141-.47-.329-.658-.47-.188-.186-.329-.327-.47-.561a1.547 1.547 0 0 1-.188-.702c0-.375.142-.655.423-.843.282-.187.706-.281 1.222-.281.517 0 .893.047 1.27.187.328.142.61.234.798.328l.517-1.264c-.235-.094-.565-.234-1.035-.373-.47-.141-1.033-.189-1.832-.189-.424 0-.846.094-1.269.234a3.392 3.392 0 0 0-.988.563 2.452 2.452 0 0 0-.657.889 2.814 2.814 0 0 0-.235 1.123c0 .422.094.75.235 1.077.141.327.376.609.61.89.236.234.518.468.8.702.283.187.564.374.799.561.282.188.564.375.847.515.281.188.516.328.703.515.189.188.376.375.518.562.14.188.188.422.188.703 0 .186-.047.374-.141.561-.094.187-.235.328-.376.468a1.593 1.593 0 0 1-.565.283c-.235.045-.423.092-.657.092a5.95 5.95 0 0 1-.988-.093 3.536 3.536 0 0 1-.751-.188c-.235-.046-.424-.141-.565-.187-.14-.047-.28-.142-.375-.188l-.564 1.218zm14.992-.842h-4.465v-3.464h3.149V79.77h-3.149v-3.136h4.277v-1.359h-6.062V85.95h6.25zm3.431 1.358v-4.635h1.175a5.071 5.071 0 0 0 1.504-.234c.47-.187.846-.373 1.127-.656.33-.28.565-.608.752-.983.189-.373.282-.796.282-1.217a2.762 2.762 0 0 0-.234-1.076 3.092 3.092 0 0 0-.659-.937c-.282-.28-.657-.468-1.128-.655-.47-.188-.987-.234-1.597-.234h-3.008v10.626h1.786zm0-5.852V76.54h.892c.611 0 1.129.14 1.505.469.376.28.563.701.563 1.263 0 .609-.187 1.03-.61 1.358-.423.327-.893.468-1.504.468zm12.783 5.852h1.785V75.276h-1.785v4.495h-4.7v-4.495h-1.786v10.675h1.786v-4.777h4.7zm4.464-6.977 1.27-2.246c.046-.047.046-.14.093-.234.048-.093.048-.234.048-.375a.958.958 0 0 0-.987-.983c-.283 0-.518.094-.753.283a.949.949 0 0 0-.282.7c0 .234.048.47.189.61.14.14.328.28.516.327l-.705 1.638.611.282zm2.538 6.463c.094.045.235.141.423.186.188.093.376.187.659.234.28.094.563.141.892.187a8.459 8.459 0 0 0 1.175.094 4.335 4.335 0 0 0 1.316-.234 4.638 4.638 0 0 0 1.174-.61c.377-.28.659-.607.846-.982.235-.373.33-.797.33-1.263 0-.376-.095-.75-.282-1.077-.189-.329-.424-.61-.659-.89a5.545 5.545 0 0 0-.845-.702 4.383 4.383 0 0 0-.846-.562c-.283-.187-.564-.375-.799-.514-.282-.141-.47-.329-.658-.47-.188-.186-.329-.327-.47-.561a1.549 1.549 0 0 1-.188-.702c0-.375.14-.655.423-.843.282-.187.705-.281 1.222-.281s.893.047 1.27.187c.328.142.61.234.798.328l.517-1.264c-.235-.094-.565-.234-1.035-.373-.47-.141-1.033-.189-1.832-.189-.423 0-.846.094-1.269.234a3.373 3.373 0 0 0-.987.563 2.443 2.443 0 0 0-.658.889 2.814 2.814 0 0 0-.235 1.123c0 .422.094.75.235 1.077.141.327.376.609.61.89.236.234.518.468.8.702.282.187.564.374.799.561.282.188.563.375.846.515.282.188.517.328.704.515.189.188.376.375.518.562.14.188.188.422.188.703 0 .186-.047.374-.141.561-.094.187-.235.328-.376.468a1.593 1.593 0 0 1-.565.283c-.235.045-.422.092-.657.092-.376 0-.705-.047-.987-.093a3.529 3.529 0 0 1-.752-.188c-.235-.046-.422-.141-.564-.187-.14-.047-.282-.142-.376-.188zm19.174.514h1.787V75.274h-1.787v4.495h-4.746v-4.493h-1.786v10.675h1.786v-4.777h4.746zm10.34-1.358h-4.465v-3.464h3.149V79.77h-3.149v-3.136h4.277v-1.359h-6.063V85.95h6.251zm6.438-2.48h-2.82l1.457-3.84zm-3.243 1.216h3.713l.94 2.621h1.833l-3.806-10.674h-1.082l-4.23 10.675h1.599l1.033-2.621zm9.588-8.005h-1.786v10.626h5.64v-1.357h-3.854zm3.007 1.357h3.29v9.27h1.787v-9.316h3.29v-1.359h-8.413v1.406h.046zm16.355 9.27h1.787V75.276h-1.787v4.495h-4.746v-4.495h-1.786v10.675h1.786v-4.777h4.746zm16.026-1.873c-.141.047-.282.141-.423.234-.14.094-.375.14-.564.235-.235.046-.47.14-.798.186a6.445 6.445 0 0 1-1.035.094 2.793 2.793 0 0 1-1.363-.328c-.422-.187-.846-.514-1.174-.843a4.111 4.111 0 0 1-.8-1.31 4.626 4.626 0 0 1-.281-1.638c0-.61.094-1.125.281-1.639.189-.514.47-.937.8-1.31a3.232 3.232 0 0 1 1.128-.843 3.324 3.324 0 0 1 1.315-.282c.423 0 .753.047 1.081.094.329.047.611.141.846.188.235.094.423.14.564.234.14.046.282.14.376.187l.517-1.264a4.272 4.272 0 0 1-.423-.234 5.527 5.527 0 0 0-.705-.281c-.282-.094-.611-.141-.986-.188a11.083 11.083 0 0 0-1.363-.094c-.8 0-1.505.142-2.163.47a4.89 4.89 0 0 0-1.692 1.216c-.47.514-.845 1.077-1.08 1.78-.283.655-.376 1.404-.376 2.153 0 .748.14 1.452.376 2.154.282.655.61 1.263 1.08 1.778.47.514 1.035.89 1.692 1.217a5.398 5.398 0 0 0 2.163.421 9.3 9.3 0 0 0 1.268-.094c.376-.046.705-.14.987-.186.282-.094.565-.188.752-.281.235-.094.423-.234.611-.328zm6.955-1.966h-2.82l1.457-3.84zm-3.242 1.217h3.712l.94 2.621h1.833l-3.806-10.674h-1.08L212.98 85.95h1.598l1.034-2.621zm9.587-3.418v-3.37h.94c.376 0 .658.047.94.14.282.094.47.235.658.374.188.141.282.329.376.516.093.187.093.421.093.608 0 .188-.046.421-.14.609-.095.187-.188.374-.376.561-.188.188-.376.283-.658.422a2.831 2.831 0 0 1-.94.141h-.893zm6.016 6.039-3.196-5.196c.187-.046.423-.188.658-.328.235-.14.47-.327.658-.561a4.56 4.56 0 0 0 .517-.797c.14-.28.187-.655.187-1.028 0-.329-.094-.655-.235-.984-.14-.328-.376-.61-.704-.89-.329-.28-.705-.468-1.175-.608a5.807 5.807 0 0 0-1.645-.234h-2.914v10.626h1.786v-4.775h1.081l2.914 4.963zm7.566-1.357h-4.465v-3.464h3.15V79.77h-3.15v-3.136h4.277v-1.359h-6.063V85.95h6.251zm7.332-9.27h-1.787V85.95h5.64v-1.357h-3.853zm7.284.188a4.582 4.582 0 0 0-1.645 1.17c-.47.515-.845 1.079-1.081 1.78-.282.655-.375 1.404-.375 2.2 0 .842.14 1.638.375 2.294.282.701.61 1.263 1.081 1.732a5.688 5.688 0 0 0 1.645 1.123 6.275 6.275 0 0 0 2.115.375 6.22 6.22 0 0 0 2.068-.375c.657-.28 1.174-.608 1.691-1.123.47-.469.846-1.077 1.129-1.732a6.06 6.06 0 0 0 .422-2.295 7.04 7.04 0 0 0-.376-2.246c-.235-.703-.611-1.264-1.033-1.78-.47-.467-.987-.889-1.646-1.123-.657-.28-1.363-.421-2.209-.421-.846 0-1.55.141-2.161.421zm3.478 1.264c.422.235.751.515 1.033.89.283.374.518.842.659 1.31.14.515.235 1.077.235 1.639a5.989 5.989 0 0 1-.235 1.638 3.807 3.807 0 0 1-.659 1.31c-.282.376-.657.656-1.033.89a2.793 2.793 0 0 1-1.363.329c-.517 0-.987-.094-1.41-.328a3.16 3.16 0 0 1-1.034-.89 3.823 3.823 0 0 1-.658-1.311 6.267 6.267 0 0 1-.235-1.638c0-.61.094-1.17.235-1.686.14-.514.376-.936.658-1.31.281-.374.657-.656 1.033-.89.424-.187.894-.327 1.41-.327.518.046.94.187 1.364.374zm13.065-1.452v7.773l-5.922-7.772h-1.504v10.626h1.551v-7.677l5.828 7.677h1.55V75.276h-1.503v.048zm3.76 10.627h3.195c.752 0 1.457-.14 2.162-.42a5.777 5.777 0 0 0 1.785-1.124 4.857 4.857 0 0 0 1.222-1.684c.33-.655.47-1.36.47-2.155 0-.842-.14-1.545-.422-2.2a5.32 5.32 0 0 0-1.128-1.686c-.47-.468-1.081-.796-1.786-1.076a7.19 7.19 0 0 0-2.303-.375H273.7zm1.785-1.357v-7.959h1.457c.47 0 .94.094 1.363.234a3.03 3.03 0 0 1 1.174.703c.33.328.611.75.846 1.217a4.99 4.99 0 0 1 .33 1.778c0 .61-.094 1.124-.33 1.64-.235.467-.47.889-.846 1.264-.328.374-.75.608-1.174.796a3.327 3.327 0 0 1-1.316.28h-1.504zm11.656-9.082a4.585 4.585 0 0 0-1.646 1.17c-.47.515-.846 1.079-1.08 1.78-.283.655-.377 1.404-.377 2.2 0 .842.142 1.638.376 2.294.283.701.611 1.263 1.081 1.732a5.693 5.693 0 0 0 1.646 1.123 6.269 6.269 0 0 0 2.114.375 6.21 6.21 0 0 0 2.067-.375c.659-.28 1.176-.608 1.693-1.123.47-.469.846-1.077 1.127-1.732a6.041 6.041 0 0 0 .424-2.295 7.04 7.04 0 0 0-.376-2.246c-.235-.703-.611-1.264-1.035-1.78-.47-.467-.987-.889-1.644-1.123-.658-.28-1.363-.421-2.209-.421a5.394 5.394 0 0 0-2.161.421zm3.477 1.264c.423.235.752.515 1.034.89.281.374.516.842.658 1.31.14.515.234 1.077.234 1.639a5.989 5.989 0 0 1-.234 1.638 3.823 3.823 0 0 1-.658 1.31c-.282.376-.658.656-1.034.89a2.79 2.79 0 0 1-1.363.329c-.516 0-.987-.094-1.41-.328a3.164 3.164 0 0 1-1.034-.89 3.84 3.84 0 0 1-.657-1.311 6.267 6.267 0 0 1-.235-1.638c0-.61.093-1.17.235-1.686a3.85 3.85 0 0 1 .657-1.31c.282-.374.658-.656 1.034-.89.423-.187.894-.327 1.41-.327a4.184 4.184 0 0 1 1.363.374zm13.065-1.452v7.773l-5.875-7.772h-1.503v10.626h1.55v-7.677l5.828 7.677h1.55V75.276h-1.55v.048z"/>
  <path fill="#cae1f4" d="M34.957 89.976c5.545-1.264 17.248-6.882 12.548-13.201C39 65.305 8.592 71.859 8.592 71.859s-1.974.187-1.786.983c.095.515 2.021.234 2.021.234s25.19-2.388 30.172 4.26c4.98 6.694-7.425 11.61-7.425 11.61s-1.693.608-1.317 1.405c.424.983 4.7-.375 4.7-.375z"/>
  <path fill="#0070cc" d="M27.296 59.032c-2.866-3.183-6.485-6.133-8.458-9.83-1.974-3.653-1.646-7.772-.235-11.518 1.222-3.23 3.383-6.18 5.873-8.707 3.431-3.464 5.686-4.775 5.218-5.243-.565-.562-3.666 1.872-3.995 2.107-9.259 6.88-18.658 17.928-12.407 29.025 3.806 6.74 14.756 12.779 15.18 19.145.14 2.341-1.222 4.87-3.855 6.602-3.054 2.06-8.176 2.667-11.23 1.357-2.54-1.077-2.116.327-.237 1.264 4.043 2.06 9.917 2.387 14.898-.328 3.807-2.06 6.674-5.711 7.05-9.598.658-5.945-4.7-10.767-7.802-14.277z"/>
  <path fill="#0070cc" d="M9.016 30.241c.94 2.248 1.739 3.98 1.974 5.15.423 1.966-.094 2.762-.094 3.043 0 .093.047.187.141.233.141.094.375.094.799-.233 1.222-1.03 3.196-3.043.328-7.631-2.913-4.588-1.315-6.04-.845-6.601.376-.421-.094-.703-.659-.421-.94.467-3.524 1.92-1.644 6.46Zm18.468 9.316c-2.397.561-4.088.655-5.358 1.358-1.174.655-1.644 1.966-1.879 2.949-.141.609-.235.842-.565.842-.282 0-.376-.187-.517-.749-.423-1.824-.94-6.553 6.016-6.694 5.451-.094 5.734-2.341 5.922-3.044.141-.561.611-.373.705.283.141 1.029.47 3.932-4.324 5.055z"/>
  <path fill="#a9c17f" d="M43.275 4.073c0-.28-.14-.514-.423-.75-.61-.514-1.033-.327-1.691-.046-.705.28-1.88.75-4.23 1.123l-2.631.328c-2.491.282-5.922.609-9.023 1.31-5.219 1.171-17.39 3.84-22.701 16.2-3.479 8.145-1.88 18.116 4.135 25.42 1.082 1.31 1.88 1.451 2.304 1.122.187-.14.282-.373.282-.701 0-.469-.236-1.077-.8-1.873-2.82-3.886-4.276-8.333-4.276-12.828 0-2.902.61-5.805 1.833-8.519C11.976 11.61 28.519 9.13 38.012 7.912c-3.101 3.932-5.075 7.724-5.075 12.638 0 1.92.282 4.027.94 6.322.752 2.667 1.222 5.101 1.222 7.442 0 2.809-.706 5.337-2.585 7.819-2.68 3.558-5.828 4.82-9.776 5.663-.94.188-1.363.75-1.363 1.218v.142c.095.514.706.981 2.163.748 10.01-1.499 15.696-6.274 16.918-14.186.047-.42.094-.889.094-1.31 0-2.013-.565-4.214-1.081-6.18l-.376-1.591c-.657-2.809-1.268-5.712-1.268-8.802 0-.936.046-1.872.187-2.808.329-2.529 1.222-4.87 2.397-6.648l.188-.28c.47-.703.94-1.405 1.41-1.92l.14-.141c.66-.748 1.129-1.311 1.129-1.873v-.093Z"/>
  <path fill="#545454" d="M59.348 59.408c0 3.791-.093 4.26-2.162 4.54l-.893.093c-.234.235-.14.797.094.89 1.692-.093 3.008-.093 4.56-.093 1.456 0 2.678.046 4.322.094.235-.094.283-.703.094-.89l-.751-.093c-2.115-.282-2.163-.703-2.163-4.542v-4.541c0-.75.095-.797 1.692-.797 1.458 0 2.022.375 2.585 1.172 1.13 1.638 2.631 4.12 3.572 5.477 2.585 3.652 4.418 4.541 7.52 4.541.705 0 1.268-.094 1.597-.187.189-.141.141-.422-.046-.515-.988-.094-1.88-.468-2.49-1.03-2.492-2.06-4.372-4.962-7.286-9.598-.188-.28-.376-.655-.188-.889 1.833-.702 4.559-2.621 4.559-6.039 0-2.527-1.268-4.166-3.008-5.056-1.691-.89-3.806-1.077-6.063-1.077-3.57 0-6.062.094-8.082.283-.283.14-.283.701-.048.888l1.175.14c1.504.187 1.598.797 1.598 4.215v13.013zm2.96-16.293c0-1.028.095-1.169 2.35-1.169 4.043 0 5.828 2.715 5.828 5.57 0 2.481-.845 3.746-1.832 4.495-1.035.796-2.444.935-3.76.935-1.834 0-2.397-.092-2.49-.186-.096-.141-.096-.562-.096-1.17v-8.476zM88.58 55.57c1.505 0 2.022-.048 2.163-.234.094-.142.141-.422.141-.937 0-2.153-2.021-4.307-5.17-4.307-4.37 0-7.284 3.745-7.284 8.193 0 1.592.423 3.276 1.503 4.68 1.035 1.359 2.914 2.39 5.264 2.39 1.88 0 4.512-.891 5.686-3.372-.046-.328-.282-.562-.657-.422-1.128 1.405-2.162 1.78-3.337 1.78-3.9 0-6.016-3.09-6.016-6.742 0-.89.047-.983.988-.983h6.72zm-7.049-1.077c-.235 0-.235-.094-.235-.188.048-1.17 1.88-3.135 4.042-3.135s2.773 1.263 2.773 2.292c0 .47-.094.61-.235.703-.283.234-1.081.374-3.76.374H81.53zm16.59-4.446c-2.773 0-4.934 1.497-4.934 4.118 0 1.966 1.503 3.277 3.57 4.447 1.364.75 2.773 1.686 2.773 3.324 0 1.545-1.127 2.294-2.443 2.294-2.067 0-3.243-1.732-3.854-3.746-.187-.233-.657-.186-.846.048-.093 1.17.141 2.949.424 3.651.892.702 2.161 1.077 3.9 1.077 2.68 0 5.217-1.358 5.217-4.12 0-2.574-1.786-3.792-3.713-4.869-1.269-.701-2.773-1.498-2.773-2.994 0-1.31.893-2.202 2.303-2.202 1.504 0 2.585 1.03 3.196 2.621.187.235.704.141.893-.092 0-.984-.235-2.154-.565-2.95-.282-.234-1.644-.608-3.148-.608zm15.932 5.523c1.503 0 2.02-.048 2.162-.234.093-.142.14-.422.14-.937 0-2.153-2.02-4.307-5.17-4.307-4.37 0-7.283 3.745-7.283 8.193 0 1.592.422 3.276 1.504 4.68 1.033 1.359 2.914 2.39 5.263 2.39 1.88 0 4.511-.891 5.687-3.372-.048-.328-.282-.562-.659-.422-1.128 1.405-2.161 1.78-3.336 1.78-3.901 0-6.015-3.09-6.015-6.742 0-.89.046-.983.987-.983h6.72zm-7.05-1.077c-.235 0-.235-.094-.235-.188.047-1.17 1.88-3.135 4.042-3.135s2.773 1.263 2.773 2.292c0 .47-.094.61-.236.703-.28.234-1.08.374-3.76.374h-2.584zm14.052 4.4c-2.303.842-3.007 1.685-3.007 3.09 0 1.03.422 1.92 1.128 2.528.61.562 1.503.843 2.537.843s1.833-.469 2.632-.89c.705-.422 1.175-.702 1.41-.702.235 0 .423.28.564.514.61.797 1.504 1.124 2.35 1.124 1.785 0 3.055-1.404 3.055-1.592 0-.234-.094-.467-.235-.467-.094 0-.283.14-.47.233-.235.094-.565.234-.893.234-1.41 0-1.74-1.498-1.692-3.135l.235-6.274c.093-2.715-1.175-4.214-3.76-4.214s-6.768 2.576-6.768 4.448c0 .328.189.514.518.514.563 0 1.504-.232 2.067-.702.283-.233.329-.655.376-1.216.094-1.124 1.316-1.639 2.303-1.639 2.256 0 2.679 1.825 2.631 3.137l-.046 1.685c0 .562-.094.89-.611 1.03zm-.235 2.622c0-1.405 1.034-1.966 3.196-2.669.658-.234 1.27-.373 1.504-.373.235 0 .376.093.376.467l-.095 2.153c-.046.75-.046 1.265-.47 1.686-.375.374-1.503.89-2.208.89-1.833 0-2.303-1.545-2.303-2.154zm13.63-.75c0 2.622-.048 2.95-1.363 3.137l-.705.094c-.236.187-.189.796.094.89.94-.095 2.02-.095 3.336-.095 1.316 0 2.303.048 4.041.094.235-.094.33-.702.095-.89l-1.316-.093c-1.363-.094-1.457-.561-1.457-3.135v-4.917c0-1.217.094-2.294.47-2.763.282-.42.705-.701 1.316-.701.516 0 1.034.235 1.598.562.235.141.423.234.799.234.563 0 1.55-.469 1.55-1.686 0-.889-.704-1.451-1.644-1.451-1.363 0-2.726 1.124-3.995 2.154-.094-.047-.094-.141-.094-.327v-2.108c0-.14-.094-.233-.282-.233-.893.561-2.82 1.498-3.665 1.778-.189.094-.189.515-.048.655l.329.235c.987.656.987.842.987 2.246v6.322zm17.811-10.72c-6.016 0-8.788 4.167-8.788 8.052 0 2.341.846 4.12 2.114 5.337 1.27 1.217 3.055 1.825 4.982 1.825 2.115 0 4.84-1.028 6.063-3.698-.048-.328-.376-.561-.659-.514-.846 1.217-1.926 2.153-4.042 2.153-3.9 0-5.827-3.37-5.827-6.18 0-3.838 2.491-5.805 5.029-5.805 1.504 0 2.82.938 3.618 1.92.142.187.33.234.518.234.423 0 .798-.702.798-1.357 0-.61-.235-1.17-.564-1.452-.987-.328-2.396-.514-3.242-.514zm7.097 10.72c0 2.622-.048 2.997-1.363 3.137l-.894.094c-.234.187-.187.796.094.89 1.176-.095 2.256-.095 3.572-.095 1.316 0 2.303.048 3.431.094.235-.094.329-.749.094-.89l-.752-.093c-1.316-.186-1.363-.561-1.363-3.135v-6.087c0-1.264.094-1.451.752-1.966.658-.562 1.598-.984 2.82-.984 2.302 0 3.43 1.546 3.43 3.886v5.15c0 2.621-.047 2.949-1.363 3.136l-.704.094c-.235.187-.188.796.093.89.987-.095 2.068-.095 3.385-.095 1.316 0 2.303.048 3.618.094.235-.094.329-.702.094-.89l-.987-.093c-1.316-.141-1.363-.561-1.363-3.135v-6.04c0-2.528-1.222-4.681-4.7-4.681-1.832 0-3.571.889-4.887 1.872-.094-.094-.141-.373-.141-.703V43.63c0-1.592.094-3.418.094-4.495-.094-.14-.235-.234-.376-.234-1.316.703-3.008 1.217-3.9 1.498-.188.094-.188.61 0 .702l.375.235c1.08.655 1.128.89 1.128 2.995v16.434zm27.54-1.451c0 3.84-.095 4.355-2.21 4.588l-.893.094c-.235.234-.141.796.095.89 1.833-.095 3.055-.095 4.558-.095 1.504 0 2.679.048 4.511.094.235-.094.283-.749.094-.89l-.892-.093c-2.162-.234-2.209-.749-2.209-4.587V46.439c0-3.839.094-4.446 2.209-4.634l.892-.094c.236-.141.141-.796-.094-.89-1.832.095-3.054.095-4.511.095-1.457 0-2.773-.048-4.558-.094-.236.094-.283.749-.095.89l.893.093c2.162.187 2.21.796 2.21 4.634v12.875zm9.775 1.452c0 2.621-.048 2.949-1.364 3.136l-.752.094c-.235.187-.187.796.094.89 1.034-.095 2.115-.095 3.43-.095 1.318 0 2.304.048 3.29.094.236-.094.33-.702.095-.89l-.658-.093c-1.316-.234-1.363-.561-1.363-3.135V55.24c0-1.03.094-1.545.565-2.154.516-.702 1.691-1.264 3.1-1.264 2.492 0 3.432 1.498 3.432 3.559v5.384c0 2.621-.048 2.949-1.363 3.135l-.705.094c-.235.187-.189.796.094.89.987-.095 2.067-.095 3.383-.095 1.317 0 2.304.048 3.43.094.236-.094.33-.702.096-.89l-.8-.093c-1.316-.186-1.363-.561-1.363-3.135v-6.228c0-2.434-1.222-4.493-4.23-4.493-1.832 0-3.571.889-5.074 1.825a.369.369 0 0 1-.376-.374c0-.328 0-.89.093-1.686a.387.387 0 0 0-.376-.234c-.704.561-2.772 1.498-3.618 1.78-.189.093-.189.514-.048.655l.33.234c.986.655.986.842.986 2.248v6.272zm21.712-10.72c-2.773 0-4.935 1.498-4.935 4.12 0 1.965 1.504 3.276 3.572 4.446 1.363.75 2.772 1.686 2.772 3.324 0 1.545-1.127 2.294-2.444 2.294-2.067 0-3.242-1.732-3.853-3.746-.188-.233-.658-.186-.846.048-.094 1.17.141 2.949.423 3.651.893.702 2.162 1.077 3.901 1.077 2.679 0 5.217-1.358 5.217-4.12 0-2.574-1.787-3.792-3.714-4.869-1.268-.701-2.772-1.498-2.772-2.994 0-1.31.893-2.202 2.303-2.202 1.504 0 2.585 1.03 3.196 2.621.187.235.704.141.893-.092 0-.984-.236-2.154-.565-2.95-.281-.234-1.644-.608-3.148-.608zm15.039 2.06c.328-.234.422-1.17-.048-1.499h-4.041c-.611 0-.658-.047-.658-.702v-1.637c-.141-.234-.564-.234-.752-.187-.376.702-1.034 1.685-1.504 2.153-.376.328-1.268.797-2.303 1.124-.14.234-.094.608.094.75h1.034c.705 0 .752.093.752 1.029v8.287c0 2.153.658 3.885 3.76 3.885 1.833 0 3.149-.89 3.807-1.684.094-.236-.095-.61-.376-.61-.095 0-.565.421-.893.514-.283.095-.611.189-.987.189-2.397 0-2.632-1.92-2.632-4.027v-6.742c0-.748.047-.889.658-.889h4.089v.047zm3.524 8.66c0 2.621-.047 2.949-1.363 3.136l-.752.094c-.235.187-.187.796.094.89 1.034-.095 2.115-.095 3.43-.095 1.317 0 2.303.048 3.432.094.234-.094.33-.702.093-.89l-.75-.093c-1.317-.186-1.364-.561-1.364-3.135v-6.508c0-1.498.094-3.23.141-4.495-.047-.14-.188-.233-.376-.233-.846.561-2.913 1.498-3.76 1.778-.188.094-.188.515-.047.655l.33.235c.986.656.986.842.986 2.246v6.322h-.094zm1.222-18.492c-1.08 0-1.974.749-1.974 1.966 0 .984.705 1.826 1.833 1.826 1.034 0 1.927-.562 1.927-1.873 0-1.077-.705-1.92-1.786-1.92zm14.663 9.831c.329-.233.423-1.17-.047-1.498h-4.042c-.61 0-.657-.047-.657-.702v-1.637c-.141-.234-.565-.234-.752-.187-.376.702-1.035 1.685-1.505 2.153-.376.328-1.268.797-2.302 1.124-.141.234-.094.608.093.75h1.035c.705 0 .752.093.752 1.029v8.287c0 2.153.657 3.885 3.76 3.885 1.832 0 3.148-.89 3.806-1.684.094-.236-.094-.61-.376-.61-.094 0-.564.421-.893.514-.282.095-.61.189-.987.189-2.396 0-2.631-1.92-2.631-4.027v-6.742c0-.748.046-.889.657-.889h4.09v.047zm5.734 1.357c0-1.778.046-2.527.093-3.135-.047-.141-.14-.235-.376-.235-.798.282-2.209.609-3.9.655-.235.094-.283.61-.094.797l.422.186c1.082.47 1.082.797 1.082 3.09v6.04c0 2.948 1.175 4.54 4.37 4.54 2.162 0 3.901-1.17 5.03-1.872.234 0 .328.187.328.514v1.498a.494.494 0 0 0 .423.235c1.221-.702 3.337-1.03 4.746-1.358.282-.14.236-.889.047-1.03-.517.094-.987.187-1.409.187-1.034 0-1.128-1.076-1.128-3.931v-6.087c0-1.357.047-2.48.094-3.135-.047-.141-.142-.235-.329-.235-.8.374-2.773.608-4.23.655-.282.141-.282.655-.047.797l.47.186c1.08.422 1.363.514 1.363 2.856v5.946c0 1.123-.235 1.684-.705 2.107-.8.701-1.974 1.075-2.96 1.075-2.773 0-3.384-1.683-3.384-4.165v-6.18zm22.886-1.357c.33-.233.424-1.17-.046-1.498h-4.042c-.61 0-.658-.047-.658-.702v-1.637c-.141-.234-.564-.234-.752-.187-.376.702-1.034 1.685-1.503 2.153-.376.328-1.27.797-2.303 1.124-.141.234-.095.608.094.75h1.033c.706 0 .752.093.752 1.029v8.287c0 2.153.659 3.885 3.76 3.885 1.833 0 3.15-.89 3.807-1.684.093-.236-.094-.61-.376-.61-.094 0-.564.421-.893.514-.282.095-.61.189-.987.189-2.397 0-2.632-1.92-2.632-4.027v-6.742c0-.748.047-.889.658-.889h4.088v.047zm11.374 3.465c1.504 0 2.021-.048 2.161-.234.095-.142.141-.422.141-.937 0-2.153-2.02-4.307-5.169-4.307-4.371 0-7.285 3.745-7.285 8.193 0 1.592.424 3.276 1.505 4.68 1.034 1.359 2.913 2.39 5.263 2.39 1.88 0 4.512-.891 5.686-3.372-.046-.328-.28-.562-.657-.422-1.128 1.405-2.163 1.78-3.337 1.78-3.9 0-6.016-3.09-6.016-6.742 0-.89.048-.983.987-.983h6.72zm-7.002-1.077c-.236 0-.236-.094-.236-.188.047-1.17 1.88-3.135 4.042-3.135s2.773 1.263 2.773 2.292c0 .47-.095.61-.235.703-.282.234-1.081.374-3.76.374h-2.584zM131.205 10.533c-.94.094-2.02.094-3.383.094-1.128 0-2.115-.047-3.477-.094-.283.141-.33.562-.048.89l1.034.093c.752.047 1.222.328 1.222.843 0 .421-.33 1.778-.986 3.792-2.727 7.77-4.983 14.326-4.983 14.326s-6.86-15.216-7.66-16.995c-.705-1.638-.657-1.872.752-2.012l.94-.094c.235-.281.188-.75-.094-.89-.846.094-2.162.094-3.994.094-1.457 0-2.82-.047-3.901-.093-.282.14-.33.561-.095.889l.94.141c1.223.093 1.786.888 2.303 2.012.611 1.311.987 2.154 1.363 2.997.188.42.377.889.611 1.452.047.092.047.139.094.186.048.094.048.141.094.234 0 .046.047.094.047.187.047.187-.14.656-.517 1.779-.893 2.435-2.866 7.912-3.666 10.112-2.115-4.446-4.229-8.942-6.25-13.436-1.127-2.574-1.88-4.4-1.88-4.869 0-.327.424-.561 1.222-.608l.846-.093c.235-.234.235-.75-.094-.89-1.27.093-3.102.093-4.136.093a92.622 92.622 0 0 1-3.76-.093c-.282.14-.328.655-.093.89l.893.093c1.503.142 1.974 1.124 2.631 2.622 2.35 5.008 4.606 10.064 6.956 15.074a241.326 241.326 0 0 1 2.49 5.805c.188.094.377.094.564.094a.945.945 0 0 0 .424-.094c1.033-2.996 4.699-13.06 5.357-14.558l.094.233c.235.468.47 1.077.799 1.778l1.128 2.481c1.457 3.137 3.572 7.585 4.418 10.066.14.094.328.094.517.094a.94.94 0 0 0 .422-.094c1.504-3.885 1.927-5.196 3.244-8.895 1.644-4.353 2.585-7.35 3.665-9.97 1.316-3.277 1.55-4.449 3.384-4.636l.704-.093c.189-.328.142-.797-.14-.937zM59.583 29.117c0 3.793-.094 4.308-2.161 4.542l-1.081.094c-.235.233-.141.796.094.889 2.02-.094 3.196-.094 4.699-.094h3.337c3.76 0 7.19.046 9.023.094.517-.983 1.504-4.682 1.504-5.056 0-.234-.705-.422-.893-.234-.706 1.825-1.692 3.135-2.396 3.604-.565.328-1.363.469-4.418.469-2.867 0-3.572-.422-3.948-.843-.658-.703-.751-1.64-.751-3.885V16.104c0-3.793.093-4.401 2.208-4.543l.893-.092c.235-.141.14-.797-.094-.89-1.833.093-3.055.093-4.465.093-1.41 0-2.679-.046-4.7-.094-.234.094-.282.75-.093.89l.892.093c2.303.188 2.35.75 2.35 4.542zm32.802 1.968c.283.89.47 1.498.47 1.92 0 .373-.516.561-1.268.655l-1.035.094c-.234.186-.234.748.094.889a91.81 91.81 0 0 1 4.184-.094c1.644 0 2.914.046 4.417.094.188-.141.235-.703 0-.89l-.987-.093c-1.55-.188-2.02-.703-3.102-3.84L90.13 15.263a97.917 97.917 0 0 1-1.598-4.869c-.095-.235-.33-.328-.565-.328-.376.468-1.033 1.123-1.879 1.357.094.562-.094 1.265-.61 2.575l-3.714 9.785c-1.504 4.073-2.537 6.413-3.196 8.052-.516 1.31-1.315 1.685-2.161 1.778l-1.222.094c-.235.188-.141.75.094.89a77.585 77.585 0 0 1 3.478-.094c1.691.047 2.82.047 3.76.093.328-.14.328-.701.093-.889l-1.222-.094c-.892-.093-1.033-.28-1.033-.701 0-.422.235-1.358.798-2.997l1.27-3.79c.234-.75.47-.892 1.363-.892h5.498c1.08 0 1.222.094 1.503.89zm-6.533-14.466c.377-1.076.753-1.966.894-2.153h.094c.235.42.564 1.404.846 2.294l1.973 5.898c.33.983.236 1.124-.798 1.124h-4.464c-1.035 0-1.035-.048-.753-.89zm59.641 11.797c0-3.418-2.256-5.525-4.559-6.928l-2.913-1.825c-1.363-.844-3.103-2.342-3.103-4.449 0-1.684.753-4.026 4.325-4.026s4.464 2.341 4.934 4.073c.188.234.752.094.893-.093 0-1.498-.329-3.56-.659-4.401-.28 0-.798-.094-1.268-.234-.94-.234-2.256-.468-3.383-.468-4.7 0-7.427 2.81-7.427 6.226 0 2.95 2.116 5.01 3.901 6.226l3.431 2.249c2.632 1.683 2.961 3.463 2.961 5.055 0 2.153-1.504 4.166-4.559 4.166-4.23 0-5.686-3.558-6.25-5.383-.14-.234-.705-.141-.893.094.094 1.684.564 4.26.987 5.056.705.421 2.631 1.357 5.686 1.357 4.888 0 7.896-2.715 7.896-6.695zm16.541 6.695c7.003 0 12.596-5.337 12.596-12.64 0-6.367-4.23-12.406-12.596-12.406-7.471 0-12.923 5.525-12.923 12.78-.047 6.508 4.84 12.266 12.923 12.266zm.471-1.124c-7.144 0-9.775-6.929-9.775-12.312 0-7.912 4.888-10.486 8.694-10.486 6.956 0 9.587 6.46 9.587 12.405 0 7.163-4.183 10.394-8.506 10.394zm37.362-14.232c0-1.687-.093-6.134.564-7.444.141-.282.893-.562 2.021-.75l.517-.093c.235-.234.235-.702-.094-.89-1.222.094-2.162.094-3.76.094-1.363 0-2.632-.047-4.276-.094-.283.094-.329.702-.094.89l.61.093c1.458.188 2.021.422 2.256.703.705 1.077.705 5.805.705 7.49v7.724c0 .75 0 1.358-.14 1.499-1.693-1.732-3.479-3.746-6.016-6.553l-3.525-3.932c-1.222-1.36-5.498-6.135-6.203-7.96-.47.093-1.082.093-1.693.093-.657 0-2.584 0-4.088-.094-.282.141-.282.703-.094.89l.611.094c.892.093 1.738.374 2.256.89.752.842.799 1.592.799 2.62v10.44c0 1.732.046 6.133-.47 7.444-.188.421-.752.609-1.598.702l-.987.094c-.235.234-.188.702.094.89 1.27-.094 2.255-.094 3.76-.094 1.363 0 2.632.047 4.23.093.235-.187.281-.609.094-.889l-1.129-.094c-.893-.093-1.645-.28-1.832-.702-.611-1.077-.659-5.805-.659-7.491v-7.864c0-1.077.048-1.92.189-2.34h.094c.752.796 3.243 3.744 4.229 4.869l8.413 9.55c3.149 3.603 4.23 4.869 4.652 5.477.423 0 .61-.188.706-.422-.095-.936-.095-5.242-.095-6.32v-8.612Z"/>
</svg>
